<svg viewBox="0 0 328 164" fill="none" xmlns="http://www.w3.org/2000/svg">
<g clip-path="url(#clip0)">
<path d="M19.9387 114.451H64.5845C66.7534 114.451 68.5117 112.693 68.5117 110.526L68.5117 19.925C68.5117 17.7573 66.7534 16.0001 64.5845 16.0001H19.9387C17.7697 16.0001 16.0114 17.7573 16.0114 19.925L16.0114 110.526C16.0114 112.693 17.7697 114.451 19.9387 114.451Z" fill="#AEB9C1"/>
<path d="M23.043 109.362H61.4687C62.9169 109.362 64.0908 108.189 64.0908 106.742L64.0908 22.8626C64.0908 21.4153 62.9169 20.2421 61.4687 20.2421H23.043C21.5949 20.2421 20.4209 21.4153 20.4209 22.8626L20.4209 106.742C20.4209 108.189 21.5949 109.362 23.043 109.362Z" fill="white"/>
<path d="M56.6246 27.4692H27.8876C25.816 27.4692 24.1367 29.1475 24.1367 31.2178V100.561C24.1367 102.631 25.816 104.31 27.8876 104.31H56.6246C58.6961 104.31 60.3754 102.631 60.3754 100.561V31.2178C60.3754 29.1475 58.6961 27.4692 56.6246 27.4692Z" fill="#7EA3C6"/>
<path d="M34.8251 23.6968L49.5228 23.6968C51.0684 23.6968 52.3213 22.4446 52.3213 20.9V20.5827C52.3213 19.0381 51.0684 17.786 49.5228 17.786H34.8251C33.2796 17.786 32.0266 19.0381 32.0266 20.5827V20.9C32.0266 22.4446 33.2796 23.6968 34.8251 23.6968Z" fill="#AEB9C1"/>
<path d="M38.611 21.6641H45.7482C45.9259 21.6491 46.0911 21.5662 46.2093 21.4328C46.3276 21.2993 46.3898 21.1254 46.3831 20.9473C46.3868 20.7711 46.3231 20.6002 46.2052 20.4692C46.0873 20.3383 45.9239 20.2571 45.7482 20.2422H38.611C38.4363 20.2572 38.2742 20.3388 38.1582 20.4701C38.0421 20.6013 37.9811 20.7722 37.9878 20.9473C37.9761 21.0362 37.9835 21.1267 38.0094 21.2126C38.0353 21.2985 38.0792 21.378 38.1381 21.4457C38.197 21.5135 38.2696 21.568 38.3511 21.6056C38.4326 21.6432 38.5212 21.6632 38.611 21.6641Z" fill="white"/>
<path d="M110.077 142.289L292.305 142.289C294.773 142.289 296.773 140.29 296.773 137.824V20.4655C296.773 17.9993 294.773 16.0001 292.305 16.0001L110.077 16.0001C107.609 16.0001 105.609 17.9993 105.609 20.4655L105.609 137.824C105.609 140.29 107.609 142.289 110.077 142.289Z" fill="#AEB9C1"/>
<path d="M114.816 133.194L288.049 133.194C290.296 133.194 292.117 131.374 292.117 129.128V26.9405C292.117 24.695 290.296 22.8746 288.049 22.8746L114.816 22.8746C112.569 22.8746 110.747 24.695 110.747 26.9405V129.128C110.747 131.374 112.569 133.194 114.816 133.194Z" fill="white"/>
<path d="M308.449 138.893H96.1315C93.6119 138.893 91.5693 140.932 91.5693 143.447C91.5693 145.961 93.6119 148 96.1315 148H308.449C310.969 148 313.011 145.961 313.011 143.447C313.011 140.932 310.969 138.893 308.449 138.893Z" fill="#CACFD6"/>
<path d="M281.297 128.105C280.112 128.045 121.8 128.07 121.8 128.07C120.621 128.134 119.464 127.729 118.582 126.943C117.701 126.157 117.167 125.054 117.097 123.875L117.097 32.4999C117.164 31.3172 117.695 30.2089 118.576 29.4165C119.457 28.6241 120.616 28.2118 121.8 28.2695L281.026 28.3622C282.206 28.3074 282.904 28.7175 283.784 29.5043C284.663 30.2911 285.654 31.3917 285.73 32.569L286 123.875C285.936 125.059 285.405 126.169 284.523 126.962C283.642 127.755 282.481 128.166 281.297 128.105Z" fill="#DDE3E8"/>
<path d="M280.03 41.958H140.331V121.337H280.03V41.958Z" fill="white"/>
<path d="M286 42.0171L117.144 42.0171V32.2328C117.207 31.049 117.738 29.9388 118.62 29.1458C119.502 28.3527 120.662 27.9416 121.847 28.0024L281.273 27.9563C282.453 27.8921 283.61 28.2974 284.491 29.0836C285.373 29.8698 285.907 30.9728 285.977 32.1514L286 42.0171Z" fill="#7EA3C6"/>
<path d="M134.887 47.4224H121.601V50.4071H134.887V47.4224Z" fill="white"/>
<path d="M134.887 57.3638H121.601V60.3485H134.887V57.3638Z" fill="white"/>
<path d="M134.887 67.3286H121.601V70.3134H134.887V67.3286Z" fill="white"/>
<path d="M134.899 77.1294H121.612V80.1142H134.899V77.1294Z" fill="white"/>
<path d="M166.54 49.6199C166.54 49.0776 166.324 48.5575 165.941 48.174C165.557 47.7906 165.037 47.5752 164.494 47.5752H151.266C150.697 47.5752 150.152 47.8001 149.749 48.2009C149.345 48.6016 149.117 49.1456 149.114 49.7139V73.1221C149.117 73.6904 149.345 74.2343 149.749 74.6351C150.152 75.0358 150.697 75.2608 151.266 75.2608H181.837C182.405 75.2608 182.949 75.0354 183.351 74.6343C183.752 74.2333 183.977 73.6893 183.977 73.1221V54.3203C183.979 54.0385 183.925 53.7591 183.818 53.4983C183.711 53.2374 183.554 53.0003 183.355 52.8004C183.156 52.6006 182.919 52.442 182.659 52.3338C182.399 52.2256 182.119 52.1699 181.837 52.1699H169.103C168.425 52.1699 167.775 51.9016 167.295 51.4237C166.814 50.9458 166.543 50.2973 166.54 49.6199Z" fill="#FFD566"/>
<path d="M228.317 82.2764H193.466V110.926H228.317V82.2764Z" fill="#CFECF1"/>
<path d="M218.205 102.981C221.29 102.981 223.79 100.482 223.79 97.3996C223.79 94.3169 221.29 91.8179 218.205 91.8179C215.121 91.8179 212.62 94.3169 212.62 97.3996C212.62 100.482 215.121 102.981 218.205 102.981Z" fill="#FFC834"/>
<path d="M201.849 90.9131H213.855L222.168 102.605L217.135 110.913H193.466V102.699L201.849 90.9131Z" fill="url(#paint0_radial)"/>
<path d="M212.867 93.0991C212.631 93.722 212.314 94.2743 211.844 94.2743C211.373 94.2743 211.138 93.722 210.903 93.0991C210.668 92.4763 210.35 91.8418 209.727 91.8418C209.104 91.8418 208.869 92.4646 208.551 93.0991C208.234 93.7337 207.999 94.2743 207.528 94.2743C207.058 94.2743 206.823 93.722 206.588 93.0991C206.353 92.4763 206.035 91.8418 205.412 91.8418C204.789 91.8418 204.554 92.4646 204.236 93.0991C203.919 93.7337 203.683 94.2743 203.213 94.2743C202.743 94.2743 202.508 93.722 202.272 93.0991C202.061 92.5644 201.763 92.0681 201.391 91.6303C201.391 91.6303 204.918 86.6125 206.094 84.9204C206.301 84.6187 206.58 84.3731 206.905 84.2057C207.231 84.0383 207.593 83.9544 207.959 83.9613C208.325 83.9683 208.684 84.0661 209.002 84.2458C209.321 84.4255 209.591 84.6815 209.786 84.9909C210.656 86.166 213.56 90.4316 214.489 91.689C213.824 91.993 213.26 92.4827 212.867 93.0991Z" fill="url(#paint1_radial)"/>
<path d="M228.317 106.025L226.565 103.558H219.028L213.761 110.961H228.317V106.025Z" fill="#8CC540"/>
<path d="M225.942 104.909C225.801 105.308 225.601 105.649 225.307 105.649C225.013 105.649 224.861 105.308 224.708 104.909C224.555 104.509 224.367 104.121 223.967 104.121C223.567 104.121 223.426 104.521 223.226 104.909C223.026 105.297 222.885 105.649 222.591 105.649C222.297 105.649 222.144 105.308 221.991 104.909C221.839 104.509 221.65 104.121 221.251 104.121C220.851 104.121 220.71 104.521 220.51 104.909C220.31 105.297 220.169 105.649 219.863 105.649C219.557 105.649 219.428 105.308 219.275 104.909C219.144 104.574 218.957 104.265 218.723 103.992C218.723 103.992 220.933 100.843 221.65 99.7736C221.775 99.5745 221.949 99.4103 222.154 99.2965C222.36 99.1828 222.591 99.123 222.826 99.123C223.061 99.123 223.293 99.1828 223.498 99.2965C223.704 99.4103 223.877 99.5745 224.002 99.7736C224.543 100.479 226.354 103.193 226.942 103.98C226.53 104.193 226.184 104.514 225.942 104.909Z" fill="url(#paint2_radial)"/>
<path d="M219.537 89.9452C219.55 89.7834 219.432 89.6422 219.273 89.6296C219.115 89.6171 218.976 89.7381 218.963 89.8998L218.872 91.0478C218.86 91.2096 218.978 91.3509 219.136 91.3634C219.295 91.3759 219.434 91.255 219.447 91.0932L219.537 89.9452Z" fill="#FFC834"/>
<path d="M216.934 90.0355C216.902 89.8764 216.75 89.7727 216.594 89.8039C216.438 89.8351 216.337 89.9893 216.369 90.1484L216.595 91.2777C216.627 91.4368 216.779 91.5405 216.935 91.5093C217.091 91.4781 217.192 91.3238 217.16 91.1648L216.934 90.0355Z" fill="#FFC834"/>
<path d="M214.778 90.6936C214.697 90.553 214.519 90.5036 214.381 90.5831C214.244 90.6626 214.198 90.841 214.279 90.9815L214.855 91.9788C214.936 92.1193 215.114 92.1687 215.251 92.0892C215.389 92.0097 215.435 91.8314 215.354 91.6909L214.778 90.6936Z" fill="#FFC834"/>
<path d="M222.187 90.9813C222.268 90.8408 222.222 90.6624 222.084 90.5829C221.947 90.5034 221.769 90.5529 221.688 90.6934L221.112 91.6907C221.031 91.8312 221.077 92.0096 221.214 92.0891C221.352 92.1686 221.53 92.1191 221.611 91.9786L222.187 90.9813Z" fill="#FFC834"/>
<path d="M224.136 92.58C224.257 92.4722 224.27 92.2885 224.164 92.1697C224.058 92.0509 223.874 92.042 223.753 92.1499L222.892 92.9154C222.771 93.0232 222.758 93.2069 222.864 93.3257C222.97 93.4445 223.154 93.4534 223.275 93.3455L224.136 92.58Z" fill="#FFC834"/>
<path d="M225.361 95.0303C225.518 94.9893 225.613 94.8313 225.573 94.6775C225.533 94.5236 225.373 94.4322 225.216 94.4732L224.101 94.7645C223.944 94.8055 223.849 94.9635 223.889 95.1173C223.929 95.2712 224.089 95.3626 224.246 95.3216L225.361 95.0303Z" fill="#FFC834"/>
<path d="M225.789 97.3883C225.951 97.3883 226.083 97.2594 226.083 97.1004C226.083 96.9414 225.951 96.8125 225.789 96.8125H224.637C224.474 96.8125 224.343 96.9414 224.343 97.1004C224.343 97.2594 224.474 97.3883 224.637 97.3883H225.789Z" fill="#FFC834"/>
<path d="M225.454 99.8746C225.608 99.9268 225.774 99.847 225.825 99.6964C225.876 99.5459 225.793 99.3815 225.64 99.3294L224.549 98.959C224.395 98.9068 224.229 98.9866 224.178 99.1371C224.126 99.2877 224.21 99.452 224.363 99.5042L225.454 99.8746Z" fill="#FFC834"/>
<path d="M272.657 82.2881H237.759V110.949H272.657V82.2881Z" fill="#CFECF1"/>
<path d="M252.943 97.3163L246.5 97.3062L246.518 85.5551L247.212 85.5562C248.737 85.5586 250.199 86.1663 251.275 87.2456C252.352 88.3249 252.955 89.7875 252.953 91.3115L252.943 97.3633L252.943 97.3163Z" fill="#DFBA95"/>
<path d="M251.346 97.1987L246.501 97.1911L246.518 86.6151L247.035 86.6159C248.183 86.6177 249.283 87.0751 250.093 87.8873C250.903 88.6996 251.357 89.8002 251.356 90.9471L251.346 97.2222L251.346 97.1987Z" fill="#F5D6C9"/>
<path d="M245.778 103.24L251.187 103.252" stroke="#BF8F67" stroke-width="0.81" stroke-miterlimit="10" stroke-linecap="round"/>
<path d="M263.898 101.666C263.898 99.0361 262.855 96.514 260.996 94.6525C259.138 92.791 256.617 91.7421 253.986 91.7359H252.152C251.874 91.7343 251.599 91.7876 251.343 91.8926C251.086 91.9976 250.852 92.1523 250.656 92.3478C250.459 92.5433 250.303 92.7757 250.196 93.0317C250.09 93.2876 250.035 93.5621 250.035 93.8393V110.949H263.898V101.666Z" fill="#DFBA95"/>
<path d="M252.598 103.581C255.968 103.581 258.7 100.85 258.7 97.4821C258.7 94.1138 255.968 91.3833 252.598 91.3833C249.227 91.3833 246.495 94.1138 246.495 97.4821C246.495 100.85 249.227 103.581 252.598 103.581Z" fill="#DFBA95"/>
<path d="M261.703 97.3261L255.26 97.316L255.278 85.5649L255.972 85.566C257.497 85.5684 258.958 86.1761 260.035 87.2554C261.112 88.3347 261.715 89.7973 261.713 91.3213L261.703 97.373L261.703 97.3261Z" fill="#DFBA95"/>
<path d="M272.681 106.272H258.5C256.923 106.272 255.378 106.712 254.038 107.542C252.698 108.373 251.617 109.561 250.916 110.972H272.681V106.272Z" fill="#DFBA95"/>
<path d="M243.779 99.7854C243.779 99.9264 243.779 100.067 243.779 100.208C243.804 100.454 243.848 100.698 243.909 100.937C244.164 101.919 244.737 102.788 245.539 103.409C246.341 104.03 247.327 104.367 248.342 104.368H251.869V98.9746H244.555C244.373 98.9769 244.196 99.0374 244.05 99.1473C243.904 99.2572 243.797 99.4108 243.744 99.5857C243.751 99.653 243.763 99.7198 243.779 99.7854Z" fill="#DFBA95"/>
<path d="M256.749 104.732C256.531 104.961 256.37 105.237 256.278 105.539C256.186 105.841 256.166 106.161 256.22 106.472L249.988 107.47V105.437L256.749 104.732Z" fill="#F9DBBD"/>
<path d="M260.106 95.4808L259.976 95.4806C258.729 95.4787 257.533 94.9816 256.653 94.0987C255.772 93.2158 255.278 92.0194 255.28 90.7728L255.287 86.6482L255.804 86.649C256.952 86.6508 258.052 87.1081 258.862 87.9204C259.672 88.7326 260.126 89.8333 260.124 90.9802L260.117 95.5278L260.106 95.4808Z" fill="#F5D6C9"/>
<path d="M254.29 104.711C254.292 103.498 253.293 102.512 252.059 102.51C250.825 102.509 249.824 103.491 249.822 104.704C249.82 105.918 250.819 106.903 252.052 106.905C253.286 106.907 254.288 105.925 254.29 104.711Z" fill="url(#paint3_radial)"/>
<path d="M254.659 105.647L249.285 105.639C247.816 105.636 246.409 105.051 245.372 104.011C244.335 102.972 243.754 101.563 243.756 100.095L243.757 99.449L254.668 99.4661C255.467 99.4673 256.232 99.7855 256.796 100.351C257.359 100.916 257.675 101.681 257.674 102.479L257.674 102.62C257.676 103.017 257.6 103.411 257.449 103.778C257.299 104.146 257.077 104.48 256.797 104.761C256.517 105.043 256.183 105.266 255.817 105.418C255.45 105.57 255.056 105.648 254.659 105.647Z" fill="#F9DBBD"/>
<path d="M243.697 99.7618C243.697 99.9028 243.697 100.056 243.697 100.197C243.719 100.447 243.766 100.695 243.838 100.937L244.144 100.843C244.56 100.715 244.924 100.459 245.184 100.11C245.445 99.7613 245.587 99.3388 245.59 98.9039H244.567C244.376 98.9006 244.189 98.9596 244.034 99.072C243.879 99.1843 243.765 99.3439 243.709 99.5267C243.698 99.6046 243.695 99.6833 243.697 99.7618Z" fill="#797778"/>
<path d="M251.116 104.85C249.866 104.666 248.69 104.141 247.718 103.334C247.642 103.255 247.6 103.15 247.6 103.04C247.6 102.931 247.642 102.825 247.718 102.747C247.773 102.681 247.847 102.635 247.93 102.616C248.013 102.597 248.099 102.606 248.177 102.641C248.549 102.804 248.947 102.904 249.353 102.935C249.747 102.962 250.143 102.93 250.529 102.841C250.94 102.747 251.363 102.617 251.822 102.488C252.324 102.335 252.86 102.335 253.362 102.488C253.428 102.512 253.489 102.548 253.54 102.595C253.592 102.642 253.634 102.699 253.663 102.763C253.693 102.826 253.709 102.895 253.712 102.965C253.715 103.034 253.704 103.104 253.68 103.17C253.435 103.648 253.071 104.055 252.621 104.35C252.172 104.644 251.653 104.817 251.116 104.85Z" fill="#BF8F67"/>
<path d="M264.169 104.956L249.988 107.47C249.738 108.614 249.553 109.772 249.436 110.937H260.206L264.169 104.956Z" fill="#9A81BB"/>
<path d="M262.431 106.082C261.992 105.563 261.777 104.891 261.834 104.214C261.891 103.537 262.214 102.91 262.733 102.471L264.457 101.015L264.594 101.176C264.997 101.652 265.194 102.269 265.142 102.89C265.09 103.511 264.793 104.086 264.316 104.488L262.431 106.082Z" fill="#9A81BB"/>
<path d="M263.816 106.284C264.64 106.284 265.309 105.615 265.309 104.791C265.309 103.967 264.64 103.299 263.816 103.299C262.991 103.299 262.322 103.967 262.322 104.791C262.322 105.615 262.991 106.284 263.816 106.284Z" fill="url(#paint4_radial)"/>
<path d="M263.146 106.295L263.145 106.225C263.134 105.546 263.392 104.889 263.865 104.401C264.337 103.912 264.984 103.631 265.664 103.619L267.921 103.58L267.926 103.862C267.937 104.486 267.699 105.087 267.266 105.536C266.833 105.984 266.239 106.242 265.615 106.253L263.146 106.295Z" fill="#9A81BB"/>
<path d="M249.024 106.977C248.271 106.378 249.541 104.509 249.541 104.509C250.717 103.005 253.574 103.334 253.574 103.334L253.468 103.522C252.939 104.239 250.964 105.872 249.811 107.048C249.6 107.2 249.364 107.2 249.024 106.977Z" fill="url(#paint5_linear)"/>
<path d="M248.694 92.7935V100.15H252.692V91.3481H252.575C251.15 91.3501 249.773 91.8629 248.694 92.7935Z" fill="#F9DBBD"/>
<path d="M248.871 98.575C248.752 98.4718 248.622 98.3812 248.483 98.3048C248.367 98.2393 248.239 98.1955 248.107 98.1755C247.981 98.1677 247.856 98.192 247.742 98.246C247.574 98.3347 247.412 98.4369 247.26 98.5516C247.239 98.5665 247.215 98.5769 247.189 98.582C247.164 98.5871 247.138 98.5869 247.112 98.5814C247.087 98.5759 247.063 98.5652 247.042 98.5499C247.021 98.5346 247.003 98.5152 246.99 98.4928C246.979 98.4687 246.974 98.4427 246.974 98.4164C246.974 98.3901 246.979 98.3641 246.99 98.34C247.038 98.0714 247.17 97.8248 247.366 97.6349C247.48 97.5217 247.616 97.4331 247.766 97.3745C247.915 97.3159 248.076 97.2885 248.236 97.2942C248.55 97.314 248.844 97.4527 249.059 97.682C249.172 97.794 249.255 97.9317 249.302 98.0833C249.349 98.2348 249.359 98.3956 249.33 98.5516C249.319 98.5935 249.291 98.6294 249.254 98.6514C249.217 98.6734 249.172 98.6798 249.13 98.669H249.071L248.871 98.575Z" fill="#5A4539"/>
<path d="M253.868 98.575C253.748 98.4755 253.618 98.3889 253.48 98.3165C253.366 98.2457 253.238 98.2015 253.104 98.1872C252.986 98.1872 252.892 98.1872 252.739 98.246C252.573 98.3433 252.412 98.4492 252.257 98.5632C252.222 98.5847 252.181 98.5954 252.14 98.5941C252.099 98.5927 252.059 98.5794 252.025 98.5556C251.992 98.5319 251.966 98.4989 251.95 98.4606C251.935 98.4223 251.932 98.3803 251.94 98.34C251.988 98.0748 252.12 97.832 252.316 97.6467C252.43 97.5335 252.566 97.4448 252.716 97.3862C252.866 97.3276 253.026 97.3003 253.186 97.3059C253.503 97.3285 253.8 97.4665 254.021 97.6937C254.13 97.8056 254.21 97.9419 254.255 98.0911C254.3 98.2404 254.308 98.3983 254.28 98.5515C254.277 98.5729 254.27 98.5934 254.259 98.6118C254.247 98.6302 254.232 98.6461 254.215 98.6583C254.197 98.6705 254.177 98.6788 254.156 98.6827C254.134 98.6866 254.113 98.6859 254.092 98.6808H254.021L253.868 98.575Z" fill="#5A4539"/>
<path d="M213.361 45.7656H199.922C199.631 45.7687 199.352 45.8865 199.148 46.0933C198.943 46.3001 198.828 46.5793 198.828 46.8702V75.8719C198.828 76.1628 198.943 76.442 199.148 76.6489C199.352 76.8557 199.631 76.9734 199.922 76.9765H221.874C222.165 76.9734 222.443 76.8557 222.648 76.6489C222.853 76.442 222.968 76.1628 222.968 75.8719V55.378L213.361 45.7656Z" fill="#DDE3E8"/>
<path d="M213.361 45.7656L222.968 55.378H214.467C214.173 55.378 213.892 55.2617 213.685 55.0545C213.478 54.8473 213.361 54.5664 213.361 54.2734V45.7656Z" fill="#AEB9C1"/>
<path d="M257.713 45.7656H244.285C243.992 45.7656 243.711 45.882 243.503 46.0892C243.296 46.2963 243.18 46.5773 243.18 46.8702V75.8719C243.18 76.1649 243.296 76.4458 243.503 76.653C243.711 76.8601 243.992 76.9765 244.285 76.9765H266.226C266.519 76.9765 266.8 76.8601 267.007 76.653C267.215 76.4458 267.331 76.1649 267.331 75.8719V55.378L257.713 45.7656Z" fill="#DDE3E8"/>
<path d="M257.713 45.7656L267.331 55.378H258.818C258.525 55.378 258.244 55.2617 258.037 55.0545C257.829 54.8473 257.713 54.5664 257.713 54.2734V45.7656Z" fill="#AEB9C1"/>
<path d="M169.009 81.5122H155.569C155.276 81.5122 154.995 81.6286 154.788 81.8357C154.58 82.0429 154.464 82.3238 154.464 82.6168V111.618C154.464 111.911 154.58 112.192 154.788 112.4C154.995 112.607 155.276 112.723 155.569 112.723H177.51C177.803 112.723 178.084 112.607 178.292 112.4C178.499 112.192 178.615 111.911 178.615 111.618V91.1128L169.009 81.5122Z" fill="#DDE3E8"/>
<path d="M169.009 81.5122L178.615 91.1128H170.102C169.959 91.1128 169.817 91.0846 169.684 91.0296C169.551 90.9747 169.431 90.8942 169.329 90.7927C169.228 90.6912 169.147 90.5708 169.092 90.4382C169.037 90.3056 169.009 90.1635 169.009 90.02V81.5122Z" fill="#AEB9C1"/>
<path d="M73.2036 36.5879H50.4515C49.9577 36.591 49.4852 36.7892 49.1372 37.1393C48.7891 37.4893 48.5937 37.9628 48.5938 38.4563V87.5524C48.5937 88.0459 48.7891 88.5194 49.1372 88.8694C49.4852 89.2195 49.9577 89.4177 50.4515 89.4208H87.6074C88.1032 89.4208 88.5788 89.2239 88.9294 88.8735C89.28 88.5232 89.477 88.0479 89.477 87.5524V52.8514L73.2036 36.5879Z" fill="#DDE3E8"/>
<path d="M73.2031 36.5879L89.4765 52.8514H75.0727C74.5768 52.8514 74.1013 52.6545 73.7507 52.3041C73.4001 51.9538 73.2031 51.4785 73.2031 50.983V36.5879Z" fill="#AEB9C1"/>
<path d="M80.552 69.3732L75.0256 78.5508C74.8681 78.8106 74.6322 79.0137 74.3517 79.1308C74.0713 79.248 73.7609 79.273 73.4653 79.2024C73.1697 79.1318 72.9041 78.9693 72.707 78.7381C72.5098 78.5069 72.3912 78.2191 72.3683 77.9163L71.745 68.6682L70.9925 57.3518C70.9755 57.1013 71.0247 56.8506 71.1352 56.625C71.2456 56.3993 71.4134 56.2067 71.6218 56.0663C71.8302 55.9259 72.0718 55.8426 72.3225 55.8249C72.5732 55.8071 72.8241 55.8555 73.0502 55.9652L83.2446 60.9712L91.5576 65.0488C91.8312 65.1834 92.0547 65.4015 92.1959 65.6716C92.337 65.9417 92.3883 66.2496 92.3425 66.5509C92.2966 66.8521 92.1559 67.1309 91.9408 67.3468C91.7256 67.5627 91.4473 67.7045 91.1461 67.7516L80.552 69.3732Z" fill="#EF9095"/>
<path d="M76.6842 70.384C77.0077 69.9142 77.1347 69.3367 77.038 68.7746C76.9414 68.2126 76.6287 67.7105 76.1669 67.3757C75.6857 67.0896 75.1182 66.9846 74.5664 67.0794C74.0146 67.1742 73.5148 67.4625 73.1568 67.8927C72.9751 68.1185 72.8435 68.3802 72.7707 68.6606C72.6979 68.941 72.6855 69.2337 72.7344 69.5193C72.7833 69.8048 72.8924 70.0767 73.0544 70.317C73.2164 70.5572 73.4277 70.7603 73.6741 70.9128C74.1624 71.1751 74.7249 71.2656 75.2709 71.1697C75.8169 71.0738 76.3147 70.797 76.6842 70.384Z" fill="#EF9095"/>
<path d="M84.5504 77.8225C84.3075 77.6901 84.0943 77.5094 83.9241 77.2914C83.7539 77.0734 83.6302 76.8228 83.5608 76.5552C83.4914 76.2875 83.4776 76.0085 83.5204 75.7353C83.5632 75.4621 83.6617 75.2006 83.8096 74.967C83.9395 74.7216 84.119 74.506 84.3369 74.3339C84.5547 74.1618 84.8061 74.0369 85.0749 73.9672C85.3437 73.8976 85.6241 73.8847 85.8982 73.9294C86.1723 73.974 86.4341 74.0753 86.6668 74.2267C87.1304 74.5164 87.4655 74.9724 87.6033 75.5012C87.741 76.0301 87.671 76.5915 87.4076 77.0704C87.1029 77.5199 86.6455 77.8439 86.1202 77.9822C85.5948 78.1205 85.0371 78.0637 84.5504 77.8225Z" fill="#EF9095"/>
<path d="M95.8266 83.6983C95.5707 83.5765 95.3425 83.4037 95.1559 83.1906C94.9692 82.9774 94.828 82.7285 94.741 82.4589C94.6541 82.1894 94.6231 81.9049 94.65 81.623C94.677 81.341 94.7612 81.0675 94.8977 80.8193C95.0258 80.5685 95.2022 80.3454 95.4166 80.1628C95.631 79.9801 95.8794 79.8414 96.1474 79.7547C96.4155 79.6679 96.698 79.6348 96.9788 79.6572C97.2597 79.6795 97.5334 79.757 97.7843 79.8851C98.0353 80.0132 98.2585 80.1894 98.4413 80.4037C98.624 80.618 98.7628 80.8661 98.8496 81.134C98.9364 81.4019 98.9695 81.6843 98.9471 81.965C98.9248 82.2457 98.8473 82.5192 98.7191 82.7699C98.6125 83.0402 98.4472 83.2834 98.2351 83.482C98.023 83.6806 97.7695 83.8297 97.4928 83.9185C97.2161 84.0073 96.9231 84.0337 96.6349 83.9956C96.3468 83.9575 96.0707 83.8559 95.8266 83.6983Z" fill="#EF9095"/>
<path d="M107.784 88.8214C107.288 88.6016 106.896 88.1978 106.692 87.6951C106.489 87.1925 106.488 86.6302 106.691 86.1272C106.894 85.6241 107.284 85.2194 107.78 84.9986C108.276 84.7778 108.838 84.758 109.348 84.9435C109.844 85.1749 110.238 85.5804 110.455 86.083C110.672 86.5856 110.696 87.1503 110.524 87.6698C110.44 87.9402 110.298 88.1891 110.108 88.3988C109.917 88.6085 109.684 88.7741 109.422 88.8839C109.161 88.9936 108.879 89.0449 108.596 89.0341C108.313 89.0233 108.036 88.9507 107.784 88.8214Z" fill="#EF9095"/>
<path d="M120.071 93.0987C119.801 93.0394 119.547 92.9224 119.327 92.7559C119.107 92.5893 118.925 92.3772 118.794 92.1338C118.664 91.8905 118.587 91.6218 118.57 91.3462C118.553 91.0706 118.596 90.7946 118.696 90.537C118.768 90.275 118.893 90.0304 119.062 89.8181C119.232 89.6057 119.443 89.4299 119.683 89.3014C119.922 89.1729 120.186 89.0942 120.456 89.0703C120.727 89.0464 121 89.0776 121.259 89.1621C121.518 89.2388 121.76 89.3661 121.97 89.5367C122.18 89.7073 122.354 89.9178 122.482 90.156C122.61 90.3943 122.689 90.6555 122.715 90.9246C122.741 91.1937 122.714 91.4654 122.634 91.7238C122.575 91.9935 122.458 92.2472 122.291 92.4675C122.125 92.6878 121.912 92.8694 121.669 93C121.426 93.1306 121.157 93.207 120.881 93.2241C120.605 93.2411 120.329 93.1983 120.071 93.0987Z" fill="#EF9095"/>
<path d="M132.535 96.1073C132.274 96.0609 132.025 95.9628 131.803 95.8188C131.581 95.6748 131.389 95.4878 131.24 95.2688C131.091 95.0498 130.988 94.8033 130.935 94.5437C130.883 94.2841 130.883 94.0166 130.936 93.7571C131.115 93.232 131.474 92.7871 131.95 92.5011C132.425 92.2151 132.987 92.1064 133.535 92.1942C133.795 92.242 134.042 92.3411 134.263 92.4857C134.484 92.6303 134.674 92.8174 134.822 93.0363C134.97 93.2551 135.073 93.5012 135.124 93.7601C135.176 94.0191 135.175 94.2857 135.122 94.5444C135.083 94.8316 134.981 95.1065 134.822 95.3489C134.663 95.5912 134.451 95.7948 134.203 95.9448C133.955 96.0947 133.676 96.1871 133.388 96.2153C133.099 96.2434 132.808 96.2065 132.535 96.1073Z" fill="#EF9095"/>
<path d="M145.305 98.4342C144.747 98.3485 144.246 98.0447 143.912 97.5896C143.577 97.1345 143.438 96.5655 143.524 96.0076C143.609 95.4498 143.913 94.9488 144.369 94.6149C144.824 94.281 145.394 94.1416 145.952 94.2273C146.226 94.2327 146.495 94.2978 146.741 94.418C146.987 94.5382 147.204 94.7106 147.376 94.9232C147.549 95.1359 147.673 95.3835 147.739 95.649C147.806 95.9144 147.814 96.1912 147.763 96.46C147.736 96.7531 147.651 97.0379 147.513 97.2974C147.374 97.5568 147.184 97.7856 146.954 97.9699C146.725 98.1543 146.46 98.2904 146.177 98.3702C145.894 98.45 145.597 98.4717 145.305 98.4342Z" fill="#EF9095"/>
<path d="M158.285 99.4327C157.863 99.4087 157.456 99.2599 157.118 99.0051C156.78 98.7503 156.525 98.401 156.386 98.0014C156.246 97.6018 156.229 97.1699 156.335 96.7603C156.442 96.3507 156.667 95.9817 156.983 95.7003C157.3 95.4188 157.692 95.2374 158.112 95.1791C158.531 95.1208 158.958 95.1881 159.339 95.3726C159.72 95.557 160.038 95.8503 160.252 96.2154C160.467 96.5804 160.568 97.0008 160.543 97.4232C160.51 97.9887 160.253 98.5178 159.83 98.8945C159.407 99.2712 158.851 99.4648 158.285 99.4327Z" fill="#EF9095"/>
</g>
<defs>
<radialGradient id="paint0_radial" cx="0" cy="0" r="1" gradientUnits="userSpaceOnUse" gradientTransform="translate(228.599 108.387) scale(22.27 22.2565)">
<stop offset="0.01" stop-color="#81A554"/>
<stop offset="0.67" stop-color="#8CC540"/>
</radialGradient>
<radialGradient id="paint1_radial" cx="0" cy="0" r="1" gradientUnits="userSpaceOnUse" gradientTransform="translate(226.268 88.465) rotate(-170.262) scale(11.9998 11.993)">
<stop stop-color="#E1DFDD"/>
<stop offset="1" stop-color="#FAF9F8"/>
</radialGradient>
<radialGradient id="paint2_radial" cx="0" cy="0" r="1" gradientUnits="userSpaceOnUse" gradientTransform="translate(-18731.1 5368.21) scale(52.4377 41.6363)">
<stop stop-color="#E1DFDD"/>
<stop offset="1" stop-color="#FAF9F8"/>
</radialGradient>
<radialGradient id="paint3_radial" cx="0" cy="0" r="1" gradientUnits="userSpaceOnUse" gradientTransform="translate(248.741 106.205) rotate(90.0901) scale(2.19805 2.90723)">
<stop stop-color="#DFBA95"/>
<stop offset="0.44" stop-color="#ECCAA8"/>
<stop offset="1" stop-color="#F9DBBD"/>
</radialGradient>
<radialGradient id="paint4_radial" cx="0" cy="0" r="1" gradientUnits="userSpaceOnUse" gradientTransform="translate(263.992 104.745) rotate(43.1827) scale(1.49287 2.98563)">
<stop stop-color="#664A93"/>
<stop offset="0.08" stop-color="#775CA0"/>
<stop offset="0.18" stop-color="#876DAC"/>
<stop offset="0.31" stop-color="#9278B5"/>
<stop offset="0.49" stop-color="#987FBA"/>
<stop offset="1" stop-color="#9A81BB"/>
</radialGradient>
<linearGradient id="paint5_linear" x1="249.976" y1="105.179" x2="254.761" y2="105.179" gradientUnits="userSpaceOnUse">
<stop stop-color="#E68866"/>
<stop offset="0.26" stop-color="#E58460"/>
<stop offset="0.59" stop-color="#E47850"/>
<stop offset="0.97" stop-color="#E16435"/>
<stop offset="1" stop-color="#E16233"/>
</linearGradient>
<clipPath id="clip0">
<rect x="16" y="16" width="297" height="132" fill="white"/>
</clipPath>
</defs>
</svg>
