<svg viewBox="0 0 328 164" fill="none" xmlns="http://www.w3.org/2000/svg">
<path d="M78.8 99.6C78.8 116 65.5 129.4 49 129.4C32.5 129.4 19.2 116.1 19.2 99.6C19.2 83.6 31.8 70.6 47.7 69.9C47.9 69.9 48.1 69.8 48.2 69.8H48.8C48.9 69.8 48.9 69.8 49 69.8C49.1 69.8 49.1 69.8 49.2 69.8H76.1C77.6 69.8 78.8 71 78.8 72.5V99.3C78.8 99.5 78.8 99.6 78.8 99.6Z" fill="#FFD566"/>
<path d="M65 60.9H33C30.9 60.9 29.2 62.6 29.2 64.7V121.9C34.5 126.6 41.4 129.4 49 129.4C56.6 129.4 63.5 126.6 68.8 121.9V64.7C68.8 62.6 67.1 60.9 65 60.9Z" fill="#CFD6E3"/>
<path d="M63.5 63.8H34.3C33.3 63.8 32.5 64.6 32.5 65.6V124.3C37.2 127.5 42.9 129.3 49.1 129.3C55.1 129.3 60.7 127.5 65.4 124.4V65.6C65.4 64.6 64.6 63.8 63.5 63.8Z" fill="white"/>
<path d="M269.3 144.3H107.8C104.9 144.3 102.6 142 102.6 139.1V29.5C102.6 26.6 104.9 24.3 107.8 24.3H269.3C272.2 24.3 274.5 26.6 274.5 29.5V139C274.5 141.9 272.2 144.3 269.3 144.3Z" fill="#E8EAEE"/>
<path d="M261.4 72.3H170.2C169.1 72.3 168.2 71.4 168.2 70.3V47C168.2 45.9 169.1 45 170.2 45H261.4C262.5 45 263.4 45.9 263.4 47V70.3C263.4 71.5 262.5 72.3 261.4 72.3Z" fill="white"/>
<path d="M186.7 58.1L183 61.8L190.5 69.2L191.7 68L186.7 58.1Z" fill="#A2CE62"/>
<path d="M175.6 54.4L183 69.2H190.5L183 61.8L175.6 54.4Z" fill="#8CC540"/>
<path d="M191.7 68L190.5 69.2H192.3H193.3V66.4L191.7 68Z" fill="#A2CE62"/>
<path d="M175.6 54.4L183 61.8L186.7 58.1L193.3 64.6V48.5H172.5V57.4L175.6 54.4Z" fill="#CCE3F6"/>
<path d="M172.5 57.4V69.2H175.6H183L175.6 54.4L172.5 57.4Z" fill="#A2CE62"/>
<path d="M193.3 64.6L186.7 58.1L191.7 68L193.3 66.4V64.6Z" fill="#8CC540"/>
<path d="M157.5 144.3H107.3C104.8 144.3 102.7 142.2 102.7 139.7V28.9C102.7 26.4 104.8 24.3 107.3 24.3H157.5V144.3Z" fill="#AEB9C1"/>
<path d="M140.4 78.2H119.3C118.1 78.2 117.2 77.3 117.2 76.1V36.9C117.2 35.7 118.1 34.8 119.3 34.8H140.4C141.6 34.8 142.5 35.7 142.5 36.9V76.2C142.5 77.3 141.5 78.2 140.4 78.2Z" fill="white"/>
<path d="M93.3 93.7C97.6 86.9 106.4 93.8 103.4 102.5C103 104 93.5 122.3 93.5 127.1C93.5 142.1 93.9 157.2 93.9 157.2C93.9 157.2 93.9 158.6 92.7 158.6C92.1 158.6 91.7 158.1 91.5 157.4C88.8 150.2 86 137.6 84.4 127.7C83 120.1 89.3 100.1 93.3 93.7Z" fill="url(#paint0_radial)"/>
<path d="M88.6 159L91.1 157.9C91.8 157.6 91.7 156.4 91.7 156.4C91.8 155.7 91.8 155.1 92.6 155.1C93.2 155.1 93.7 155.3 93.8 155.9L94 157L94.2 159C94.2 159.6 93.8 160 93.3 160L88.9 160.1C88.4 160 88.2 159.3 88.6 159Z" fill="#68ADDF"/>
<path d="M97.7 159L100.3 157.9C101 157.6 100.9 156.4 100.9 156.4C101 155.7 101.3 155.2 102.2 155.2C102.8 155.2 103.3 155.7 103.4 156.4V159C103.4 159.6 103 160 102.5 160H98C97.5 160 97.3 159.3 97.7 159Z" fill="#68ADDF"/>
<path d="M108.4 94.3C106 86 95.9 89.9 96.2 99.1C96.1 100.7 97.3 115.6 98.4 129.8C99.5 144.2 100.7 157.9 100.7 157.9C100.8 158.6 101.4 159.2 102 159.1C102.6 159 103 158.5 103.2 157.8C104.6 148.5 106 140.2 107.1 131.4C109.2 115.6 110.2 100.7 108.4 94.3Z" fill="#68ADDF"/>
<path d="M93.8 79.7C96.6 79.6 97.7 71 97.7 71C99.3 68.9 101.9 68.8 103.2 69.8C104.5 70.8 104.6 72.3 103.8 73.8C103.8 73.8 103.3 85.5 95.3 85.8C89.4 86.1 86 74 85.7 70.3L87.2 70.2C88.3 74.3 91.6 79.8 93.8 79.7Z" fill="url(#paint1_radial)"/>
<path d="M80.8 62.9C80.8 62.8 81.2 62.4 81.3 62.3L82.9 61.9C83 61.9 83.3 61.8 83.4 61.9C83.5 62 83.6 62.2 83.8 62.4L88.2 69.6C88.3 69.8 88.4 69.9 88.4 70.1C88.4 70.2 87.9 70.7 87.8 70.7L86.3 71C86.2 71 86.1 71 85.9 70.9C85.8 70.8 85.6 70.7 85.5 70.5L81 63.5C80.9 63.3 80.8 63.1 80.8 62.9Z" fill="#84807E"/>
<path d="M80.7 63C80.7 62.9 80.7 62.8 80.8 62.8L82.3 62.4C82.4 62.4 82.5 62.4 82.6 62.5C82.7 62.6 82.9 62.7 83 62.9L87.5 70C87.6 70.2 87.7 70.3 87.7 70.5C87.7 70.6 87.7 70.7 87.6 70.7L86.1 71.1C86 71.1 85.9 71.1 85.8 71C85.7 70.9 85.5 70.8 85.4 70.6L80.9 63.5C80.8 63.3 80.8 63.2 80.7 63Z" fill="#595554"/>
<path d="M82 63.6C81.9 63.5 81.8 63.4 81.7 63.3C81.6 63.2 81.6 63.1 81.6 62.9C81.6 62.8 81.6 62.7 81.7 62.7C81.8 62.7 81.8 62.7 82 62.8C82.1 62.9 82.2 63 82.3 63.1C82.4 63.2 82.4 63.3 82.4 63.4C82.4 63.5 82.4 63.6 82.3 63.6C82.2 63.6 82.2 63.7 82 63.6Z" fill="#96938F"/>
<path d="M83.6 65.6C83.8 65.7 83.4 66.7 83.4 66.7L83.5 67.2L84.1 66.9C84.1 66.9 84.9 67 85.2 67C85.5 67 85.8 69.3 85.8 69.3C85.8 69.3 87.3 70.1 87.5 70.8C87.6 71.1 87 71.5 87 71.5L86.6 71.7C86.6 71.7 86.2 71.5 86.1 71.4C85.6 71.1 85.3 71 84.2 70.6C84.1 70.6 83.4 70.1 83.4 70C83.4 69.9 82.8 68 82.9 67.7C82.9 67.6 82.8 66.8 82.9 66.6C82.9 66.4 83.3 65.5 83.6 65.6Z" fill="#DFBA95"/>
<path d="M92 96.1C92 96.1 95.7 92 100.2 92C104.7 92 108.2 93.5 108.2 93.5C108.2 98.8 101 105.8 96.5 105.8C96.6 105.8 92.6 98.9 92 96.1Z" fill="#68ADDF"/>
<path d="M106.389 74.4608C106.501 71.8122 104.669 69.5834 102.296 69.4827C99.9237 69.3819 97.9091 71.4474 97.7967 74.096C97.6842 76.7445 99.5165 78.9733 101.889 79.074C104.262 79.1748 106.276 77.1093 106.389 74.4608Z" fill="#8C8CC4"/>
<path d="M108.5 94.7C99.9 95.1 92 96.2 92 96.2C92 96.2 93.7 80.7 95.7 73.9C96.6 70.7 97.9 68.5 100 66.9C101 66.1 102.1 65.8 103.4 65.8C104.6 65.9 105.6 66.2 106.6 66.9C109 68.7 110.2 71.5 109.5 77.1C109.2 79.5 107.3 84 107.7 87.9C107.6 87.9 108.6 94.8 108.5 94.7Z" fill="#EF9095"/>
<path d="M106.4 66.8C105.4 65.7 105.4 64.1 105.6 62.7L106.1 58.5L102 58.4L101.5 64.6C101.4 65.3 100.5 66.4 99.9 66.9C99.7 67 101 67 101.2 67L106.4 66.8Z" fill="url(#paint2_radial)"/>
<path d="M106.5 67C105.2 66.9 104.5 66.7 102.5 67.2C101 67.5 99.8 67.4 99.7 67.1C100.6 66.2 101.9 65.6 103.2 65.6C104.5 65.6 105 65.4 106.5 67Z" fill="#DFBA95"/>
<path d="M109.2 53.1C110.2 57 108.1 60.9 104.5 61.8C100.9 62.7 97.2 60.3 96.2 56.4C95.2 52.5 95.9 49.1 100.9 47.7C105.9 46.4 108.2 49.2 109.2 53.1Z" fill="#F9DBBD"/>
<path d="M105.2 49.2C103.5 45.6 99 46 96.6 47.9C94.5 49.5 92.5 52.3 91.3 50.8C91.3 50.8 90.9 53.3 92 55.4C93.1 57.5 95.7 57.7 97.3 56.4C98.3 55.6 98.9 53.2 100.8 51.3C102.4 49.7 105.2 49.2 105.2 49.2Z" fill="#F9DBBD"/>
<path d="M101.7 64.6C99.9 65.1 98 64.1 97.6 62.3L95.6 54.8C95 53.1 96 51.4 97.7 51H97.8C100.2 50.3 102.7 51.8 103.3 54.2L104.7 59.5C105.3 61.6 103.9 64 101.7 64.6Z" fill="#DFBA95"/>
<path d="M103.4 59.9L105.1 59.4C105.9 59.2 106.4 58.3 106.2 57.5V57.4C106 56.6 105.1 56.1 104.3 56.3L102.6 56.8L103.4 59.9Z" fill="#DFBA95"/>
<path d="M96.3 57C96.6 58.2 96.2 59.2 95.9 59.8C95.7 60.1 95.8 60.8 96.2 61.1C96.4 61.3 97.5 61.4 97.7 62" fill="#DFBA95"/>
<path d="M99.9 55.8H99.8V55.9H99.9V55.8Z" fill="url(#paint3_radial)"/>
<path d="M98.5 62.2C98.9 62.2 98.9 62.1 99.1 62C99.2 61.9 99.3 61.9 99.3 61.8C99.4 61.7 99.5 61.6 99.6 61.5C99.7 61.4 99.8 61.4 99.8 61.5C99.9 61.7 100 62 99.9 62.2C99.8 62.4 99.7 62.6 99.5 62.8C99.3 62.9 99 63 98.8 63C98.5 63 98.3 62.8 98.2 62.6C98.3 62.4 98.3 62.3 98.5 62.2C98.4 62.2 98.4 62.3 98.5 62.2Z" fill="#BF8F67"/>
<path d="M105.1 62.1C105.873 62.1 106.5 61.4732 106.5 60.7C106.5 59.9268 105.873 59.3 105.1 59.3C104.327 59.3 103.7 59.9268 103.7 60.7C103.7 61.4732 104.327 62.1 105.1 62.1Z" fill="#FFD566"/>
<path d="M103.7 50.9C103.2 50 103.2 48.8 97.2 50.9C95.2 51.6 95.2 51.5 94.9 51.7C94 52.4 94.6 53.3 94.9 54.3L100.9 52.6C101.2 52.5 101.5 52.7 101.7 53L103.6 56.7L105.2 56.1L103.7 50.9Z" fill="#F9DBBD"/>
<path d="M98.4296 59.2591C98.6949 59.1826 98.8107 58.7764 98.6883 58.3519C98.5659 57.9274 98.2515 57.6453 97.9862 57.7218C97.7209 57.7984 97.6051 58.2045 97.7275 58.629C97.8499 59.0535 98.1643 59.3356 98.4296 59.2591Z" fill="#3B322F"/>
<path d="M102.9 50.8C102.9 50.8 102.7 49.3 98.1 50.7C95.9 51.4 93.5 52.1 93.9 54C94.4 56.3 95.9 56 95.9 56C95.5 54.3 97 53.7 97.3 53.6L101.1 52.5C101.4 52.4 101.6 52.6 101.8 52.9L103.6 56.6L104.7 56.1L102.9 50.8Z" fill="#F9DBBD"/>
<path d="M98.3 80.6C99.1 80.4 102.6 71.6 102.6 71.6C103.5 68.6 105.9 68.2 107.5 68.9C109 69.6 109.3 71.9 108.7 73.1C108.7 73.1 103.6 85.3 100.2 85.9C94.2 87 89.6 73.7 88.7 70.5L90.3 69.9C91.7 74.1 97.7 80.8 98.3 80.6Z" fill="#DFBA95"/>
<path d="M89.1 71.2L90.4 70.5L90.3 68.4C90.3 67.9 90.2 67.4 90 66.9C89.9 66.4 89.8 66.1 89.6 65.8C89.5 65.6 89.3 65.3 89.1 64.8C88.9 64.4 88.7 64.1 88.6 64C88.4 63.9 88.2 63.9 87.9 63.9C87.8 63.8 87.7 63.6 87.5 63.5C87.4 63.4 87.3 63.3 87.1 63.3C86.8 63.3 86.7 63.5 86.8 63.7L87.6 66.6C87.6 66.6 87.6 68.8 88.2 69.8L89.1 71.2Z" fill="#DFBA95"/>
<path d="M43.2 66.7H54.8C55.8 66.7 56.7 65.9 56.7 64.8V64.1C56.7 63.1 55.9 62.2 54.8 62.2H43.2C42.2 62.2 41.3 63 41.3 64.1V64.8C41.3 65.9 42.2 66.7 43.2 66.7Z" fill="#CFD6E3"/>
<path d="M46.3 65.2H51.7C52 65.2 52.2 64.9 52.2 64.7C52.2 64.4 52 64.2 51.7 64.2H46.3C46 64.2 45.8 64.5 45.8 64.7C45.8 65 46 65.2 46.3 65.2Z" fill="#79858C"/>
<path d="M234.5 48.5H200.5V50.8H234.5V48.5Z" fill="#AEB9C1"/>
<path d="M258.8 54.5H200.5V56.8H258.8V54.5Z" fill="#DDE3E8"/>
<path d="M258.8 60.5H200.5V62.8H258.8V60.5Z" fill="#DDE3E8"/>
<path d="M261.4 105.5H170.2C169.1 105.5 168.2 104.6 168.2 103.5V80.2C168.2 79.1 169.1 78.2 170.2 78.2H261.4C262.5 78.2 263.4 79.1 263.4 80.2V103.5C263.4 104.7 262.5 105.5 261.4 105.5Z" fill="white"/>
<path d="M234.5 81.8H200.5V84.1H234.5V81.8Z" fill="#AEB9C1"/>
<path d="M258.8 87.8H200.5V90.1H258.8V87.8Z" fill="#DDE3E8"/>
<path d="M258.8 93.9H200.5V96.2H258.8V93.9Z" fill="#DDE3E8"/>
<path d="M258.8 99.9H200.5V102.2H258.8V99.9Z" fill="#DDE3E8"/>
<path d="M261.1 138.7H169.9C168.8 138.7 167.9 137.8 167.9 136.7V113.4C167.9 112.3 168.8 111.4 169.9 111.4H261.1C262.2 111.4 263.1 112.3 263.1 113.4V136.7C263.1 137.9 262.2 138.7 261.1 138.7Z" fill="white"/>
<path d="M234.2 115H200.2V117.3H234.2V115Z" fill="#AEB9C1"/>
<path d="M258.5 121H200.2V123.3H258.5V121Z" fill="#DDE3E8"/>
<path d="M258.5 127.1H200.2V129.4H258.5V127.1Z" fill="#DDE3E8"/>
<path d="M214.4 33.3H168.2V37.8H214.4V33.3Z" fill="#AEB9C1"/>
<path d="M301.5 108.4C302.5 107.9 304.7 108.7 306.4 109.4C307.3 109.8 308.6 109.1 308.7 108.2C308.7 108.1 308.7 108 308.6 107.9C306.4 106.6 302.6 106.1 300.1 105.9C299.5 105.9 299.7 105.1 300.3 105.1C302.2 105.2 304.6 105.6 305.5 105.8C305.8 105.9 306 105.7 306.1 105.4C306.2 105.1 306.2 104.8 306.1 104.6C305.9 103.6 305.1 102.9 303.9 102.6C301.7 102.2 298.8 102.6 297.1 103C296.6 103.1 296.4 102.6 296.9 102.3C299.2 100.9 301.5 101.4 302.3 101.7C302.5 101.8 302.8 101.7 302.9 101.5C303.4 100.8 303.3 100.2 302.9 99.7C302.1 98.6 300.4 98.4 298.9 99.2C296.3 100.5 295 100.9 294.4 101C294.1 101.1 293.9 100.9 294 100.6C294.7 98.2 297.4 98.2 298.6 98.3C298.9 98.3 299.2 98.1 299.2 97.8C299.2 97.7 299.1 97.6 298.9 97.5C292.1 95.9 288.5 99.8 287.8 100.6C287.7 100.7 287.7 100.8 287.7 100.9L288.7 103.9C288.8 104.2 288.4 104.5 288.1 104.4C283 103.4 282.2 105.8 283.4 106.1C283.9 106.2 284.2 106.9 284.3 107.7C279.9 111.8 277.4 118.2 275.9 123.6C275.7 123.3 275.5 123 275.2 122.7C276.3 117 278.2 101.9 270.9 94.5C271 93.4 271.3 92 272 91.7C273.1 91.3 272.5 89 268.3 90.4C268 90.5 267.7 90.2 267.8 89.9L268.9 86.9C268.9 86.8 268.9 86.7 268.9 86.6C268.4 85.8 265.8 82.3 260 84.4C259.9 84.4 259.8 84.6 259.8 84.7C259.8 84.9 260 85.2 260.2 85.1C261.2 84.9 263.4 84.7 263.8 87C263.8 87.2 263.6 87.4 263.4 87.4C262.9 87.3 261.9 87 259.9 86C258.7 85.4 257.3 85.7 256.6 86.8C256.3 87.3 256.1 87.9 256.5 88.6C256.6 88.8 256.8 88.8 257 88.8C257.7 88.5 259.6 87.8 261.4 89C261.7 89.2 261.5 89.7 261.2 89.7C259.8 89.5 257.4 89.3 255.6 89.9C254.6 90.2 253.9 91 253.7 92C253.6 92.2 253.6 92.5 253.7 92.8C253.7 93 254 93.2 254.2 93.1C255 92.8 257 92.2 258.6 92C259.1 91.9 259.2 92.6 258.7 92.7C256.6 93.1 253.5 93.9 251.6 95.3C251.5 95.4 251.5 95.5 251.5 95.6C251.5 96.5 252.5 97.1 253.3 96.6C254.7 95.8 256.6 94.8 257.4 95.2C257.6 95.3 257.7 95.7 257.4 95.8C256.3 96.5 253 98.6 251.7 98.8C251.5 98.8 251.4 99 251.4 99.2C251.5 99.8 251.8 101 252.7 101.7C253.5 102.3 254.6 102.1 255.2 101.3C256.2 99.8 258.2 97.1 259 97.5C259.7 97.9 258.4 100.2 257.1 101.7C256.6 102.3 257 103.1 257.7 103.2C258 103.2 258.4 103.1 258.6 102.8C259.5 101.7 261.7 98.5 261.8 96.7C261.9 94.5 263 95.1 262.9 95.9C262.8 96.5 261.9 100.2 260.5 102.2C260.2 102.6 260.6 103.2 261.1 103.1H261.2C262.7 102.8 263.9 101.7 264.4 100.3C265 98.6 265.7 96.4 265.7 94.8C265.7 94.7 265.7 94.7 265.8 94.6C265.9 94.4 266.2 94.2 266.7 95C267.1 95.7 266.6 97.8 266.1 99.4C265.8 100.2 266.7 100.9 267.4 100.5C268.6 99.8 270.1 98.5 271.2 95.9C274.2 99.9 276.6 107.3 274.6 121.3C273 119.2 271.1 117 269.3 115.2C269.4 115 269.5 114.9 269.6 114.7V114.6C269.6 114.2 269.4 111.5 270.4 111.3C271.5 111 270.7 109 266.5 109.9C266.2 110 265.9 109.7 266 109.5L266.8 107C266.8 106.9 266.8 106.8 266.7 106.7C266.1 106 263.2 102.7 257.5 104.1C257.4 104.1 257.3 104.2 257.3 104.3C257.3 104.5 257.5 104.7 257.8 104.7C258.8 104.6 261 104.6 261.6 106.6C261.7 106.8 261.5 107 261.2 106.9C260.7 106.8 259.7 106.5 257.5 105.4C256.3 104.8 254.8 105 254.2 105.8C253.9 106.2 253.8 106.7 254.2 107.3C254.3 107.5 254.5 107.5 254.7 107.5C255.4 107.3 257.3 106.9 259.2 108C259.5 108.2 259.4 108.6 259 108.6C257.5 108.3 255.1 107.9 253.3 108.3C252.3 108.5 251.6 109.1 251.5 109.9C251.5 110.1 251.5 110.3 251.5 110.6C251.5 110.8 251.8 110.9 252 110.9C252.8 110.7 254.8 110.4 256.4 110.3C256.9 110.3 257 110.9 256.6 110.9C254.5 111.1 251.4 111.5 249.5 112.6C249.4 112.7 249.4 112.7 249.4 112.8C249.5 113.6 250.6 114.2 251.4 113.8C252.8 113.2 254.6 112.5 255.4 112.9C255.7 113 255.7 113.3 255.5 113.4C254.5 113.9 251.2 115.5 249.9 115.5C249.7 115.5 249.6 115.7 249.6 115.8C249.8 116.4 250.2 117.4 251.2 118.1C252 118.7 253.2 118.6 253.7 117.9C254.6 116.7 256.4 114.5 257.2 114.9C258 115.3 256.8 117.2 255.7 118.4C255.3 118.9 255.7 119.6 256.5 119.8C256.8 119.9 257.2 119.8 257.3 119.5C258.1 118.6 260.1 116 260 114.5C259.9 112.6 261.1 113.3 261.1 113.9C261.1 114.4 260.4 117.5 259.1 119.2C258.8 119.5 259.3 120.1 259.8 120H259.9C261.4 119.9 262.6 119 263 117.8C263.5 116.4 264 114.6 263.8 113.2C263.8 113.1 263.8 113 263.9 112.9C264.1 112.8 264.3 112.8 264.8 113.4C265.3 114.1 265 115.8 264.5 117.1C264.3 117.8 265.2 118.4 265.9 118.1C266.7 117.7 267.7 117.1 268.6 115.9C270.1 117.5 271.9 119.6 274.3 122.6C274.2 123.1 274.1 123.6 274.1 124L275.2 124.6C275.2 124.6 275.3 124.4 275.4 123.9C275.6 124.2 275.8 124.5 276 124.7C274.8 129.9 274.5 134 274.5 134L275.8 133.7C276.2 131 276.6 128.5 277.1 126.2C277.6 126.8 278 127.5 278.5 128.2L279.3 127.3C279.3 127.3 278.6 126.3 277.4 124.7C279.3 116.9 282 112 284.8 108.9C284.8 109.3 284.8 109.6 284.8 109.7V109.8C286 112.5 287.7 113.8 289.1 114.4C289.9 114.8 291 114 290.8 113.2C290.3 111.6 289.9 109.5 290.5 108.7C291 107.9 291.4 107.9 291.5 108.1C291.6 108.2 291.7 108.3 291.7 108.5C291.6 110.1 292.2 112.4 292.7 114C293.2 115.4 294.6 116.4 296.4 116.6H296.5C297.1 116.7 297.6 116 297.3 115.6C295.8 113.6 295 109.8 294.9 109.3C294.9 108.5 296.3 107.7 296.2 110C296.1 111.8 298.5 114.9 299.5 116C299.7 116.3 300.1 116.4 300.5 116.3C301.4 116.1 301.9 115.2 301.4 114.6C300.1 113.2 298.6 110.9 299.5 110.4C300.5 109.9 302.7 112.5 303.8 114C304.4 114.8 305.8 114.9 306.8 114.2C308 113.4 308.5 112.1 308.7 111.4C308.8 111.2 308.6 111 308.4 111C306.8 110.9 302.9 109 301.7 108.4C301.2 109 301.2 108.6 301.5 108.4ZM269 96.2C268.1 95.5 267.8 93.7 267.8 92.8C267.8 92.4 268.3 92.1 268.6 92.3C269.3 92.8 269.5 94.1 269.5 94.1C270.1 97 269 96.2 269 96.2Z" fill="#8CC540"/>
<path d="M287.6 121.8H261.3V148.1H287.6V121.8Z" fill="#EF9095"/>
<path d="M263 137.8H259.8V159.9H263V137.8Z" fill="#808A93"/>
<path d="M289.1 137.8H285.9V159.9H289.1V137.8Z" fill="#808A93"/>
<path d="M286.442 151.3V148.1H262.642V151.3H286.442Z" fill="#808A93"/>
<path d="M59.1 75.8H39.2C37.5 75.8 36.1 74.4 36.1 72.7C36.1 71 37.5 69.6 39.2 69.6H59.1C60.8 69.6 62.2 71 62.2 72.7C62.2 74.4 60.8 75.8 59.1 75.8Z" fill="#EEF0F4"/>
<path d="M183.1 81.7C183.1 81.7 183 81.7 183.1 81.7C177.4 81.7 172.9 86.3 172.9 91.9C172.9 97.5 177.5 102.1 183.1 102.1C188.7 102.1 193.3 97.5 193.3 91.9C193.3 86.2 188.7 81.7 183.1 81.7ZM183.1 100.6C182 100.6 180.6 98.8 179.9 95.7H186.3C185.6 98.8 184.1 100.6 183.1 100.6ZM179.6 94.2C179.5 93.5 179.5 92.7 179.5 91.8C179.5 90.9 179.6 90.1 179.7 89.4H186.6C186.7 90.1 186.8 91 186.8 91.8C186.8 92.6 186.7 93.4 186.7 94.2H179.6ZM174.3 91.9C174.3 91.1 174.4 90.3 174.6 89.5H178.1C178 90.3 178 91.1 178 91.9C178 92.7 178 93.5 178.1 94.3H174.6C174.4 93.5 174.3 92.7 174.3 91.9ZM183 83.1C183.1 83.1 183.1 83.1 183 83.1C184.1 83.1 185.5 84.9 186.2 88H179.8C180.6 84.9 182 83.1 183 83.1ZM188 89.5H191.5C191.7 90.3 191.8 91.1 191.8 91.9C191.8 92.7 191.7 93.5 191.5 94.3H188C188.1 93.5 188.1 92.7 188.1 91.9C188.1 91 188.1 90.2 188 89.5ZM190.9 88H187.7C187.3 86.3 186.8 84.8 186 83.7C188.2 84.4 189.9 86 190.9 88ZM180 83.7C179.3 84.8 178.7 86.3 178.3 88H175.2C176.2 86 177.9 84.4 180 83.7ZM175.2 95.7H178.3C178.7 97.4 179.2 99 180 100.1C177.9 99.3 176.2 97.7 175.2 95.7ZM186.1 100.1C186.8 99 187.4 97.5 187.8 95.7H191C189.9 97.7 188.2 99.3 186.1 100.1Z" fill="#FFD566"/>
<path d="M182.8 114.9C177.1 114.9 172.6 119.5 172.6 125.1C172.6 130.7 177.2 135.3 182.8 135.3C188.4 135.3 193 130.7 193 125.1C193 119.5 188.4 114.9 182.8 114.9ZM182.8 133.9C181.7 133.9 180.3 132.1 179.6 129H186C185.3 132 183.8 133.8 182.8 133.9ZM179.3 127.5C179.2 126.8 179.2 126 179.2 125.1C179.2 124.2 179.3 123.4 179.4 122.7H186.3C186.4 123.4 186.5 124.3 186.5 125.1C186.5 125.9 186.4 126.7 186.4 127.5H179.3ZM174 125.1C174 124.3 174.1 123.5 174.3 122.7H177.8C177.7 123.5 177.7 124.3 177.7 125.1C177.7 125.9 177.7 126.7 177.8 127.5H174.3C174.1 126.7 174 125.9 174 125.1ZM182.8 116.4C182.8 116.4 182.8 116.3 182.8 116.4C183.9 116.4 185.3 118.2 186 121.3H179.6C180.3 118.2 181.7 116.4 182.8 116.4ZM187.7 122.7H191.2C191.4 123.5 191.5 124.3 191.5 125.1C191.5 125.9 191.4 126.7 191.2 127.5H187.7C187.8 126.7 187.8 125.9 187.8 125.1C187.8 124.3 187.8 123.5 187.7 122.7ZM190.6 121.2H187.4C187 119.5 186.5 118 185.7 116.9C187.9 117.7 189.6 119.2 190.6 121.2ZM179.7 116.9C179 118 178.4 119.5 178 121.2H174.9C175.9 119.2 177.6 117.7 179.7 116.9ZM174.9 128.9H178C178.4 130.6 178.9 132.2 179.7 133.3C177.6 132.5 175.9 130.9 174.9 128.9ZM185.8 133.3C186.5 132.2 187.1 130.7 187.5 128.9H190.7C189.6 131 187.9 132.5 185.8 133.3Z" fill="#69ADDF"/>
<path d="M40.4 74.7C41.5598 74.7 42.5 73.7598 42.5 72.6C42.5 71.4402 41.5598 70.5 40.4 70.5C39.2402 70.5 38.3 71.4402 38.3 72.6C38.3 73.7598 39.2402 74.7 40.4 74.7Z" fill="#8CC540"/>
<path d="M48.7 88.8L44.7 92.7L52.6 100.5L53.9 99.2L48.7 88.8Z" fill="#A2CE62"/>
<path d="M36.9 84.9L44.7 100.5H52.6L44.7 92.7L36.9 84.9Z" fill="#8CC540"/>
<path d="M53.9 99.2L56.5 96.6L48.7 88.8L53.9 99.2Z" fill="#8CC540"/>
<path d="M56.5 96.6L53.9 99.2L52.6 100.5H54.5H60.4H64.3L60.4 92.7L56.5 96.6Z" fill="#A2CE62"/>
<path d="M60.4 92.7L64.3 100.5H65.4V97.7L60.4 92.7Z" fill="#8CC540"/>
<path d="M32.5 89.3V100.5H36.9H44.7L36.9 84.9L32.5 89.3Z" fill="#A2CE62"/>
<path d="M32.5 78.7V89.3L36.9 84.9L44.7 92.7L48.7 88.8L56.5 96.6L60.4 92.7L65.4 97.7V78.7H32.5Z" fill="#CCE3F6"/>
<path d="M62.3 106.5H36.4V108.8H62.3V106.5Z" fill="#DDE3E8"/>
<path d="M62.3 112.5H36.4V114.8H62.3V112.5Z" fill="#DDE3E8"/>
<path d="M62.3 118.5H36.4V120.8H62.3V118.5Z" fill="#DDE3E8"/>
<defs>
<radialGradient id="paint0_radial" cx="0" cy="0" r="1" gradientUnits="userSpaceOnUse" gradientTransform="translate(115.972 120.046) scale(35.4176)">
<stop offset="0.1378" stop-color="#2E76BC"/>
<stop offset="0.2709" stop-color="#4487C7"/>
<stop offset="0.4247" stop-color="#5497D1"/>
<stop offset="0.5888" stop-color="#5FA3D9"/>
<stop offset="0.7687" stop-color="#66ABDD"/>
<stop offset="0.9944" stop-color="#68ADDF"/>
</radialGradient>
<radialGradient id="paint1_radial" cx="0" cy="0" r="1" gradientUnits="userSpaceOnUse" gradientTransform="translate(98.0632 76.6387) scale(9.0277 8.48152)">
<stop offset="0.2111" stop-color="#9B643D"/>
<stop offset="0.528" stop-color="#B1805A"/>
<stop offset="1" stop-color="#DFBA95"/>
</radialGradient>
<radialGradient id="paint2_radial" cx="0" cy="0" r="1" gradientUnits="userSpaceOnUse" gradientTransform="translate(99.6707 60.7561) rotate(1.3061) scale(5.75808 5.69165)">
<stop offset="0.2111" stop-color="#9B643D"/>
<stop offset="0.528" stop-color="#B1805A"/>
<stop offset="1" stop-color="#DFBA95"/>
</radialGradient>
<radialGradient id="paint3_radial" cx="0" cy="0" r="1" gradientUnits="userSpaceOnUse" gradientTransform="translate(99.866 55.8595) rotate(150.162) scale(0.030312 0.0346671)">
<stop offset="0.000320513" stop-color="#9B643D"/>
<stop offset="0.8259" stop-color="#B7865F" stop-opacity="0.1742"/>
<stop offset="1" stop-color="#BF8F67" stop-opacity="0"/>
</radialGradient>
</defs>
</svg>
